<control>


default_path=//NDK/samples/kicks/kd14bop/snare_off/opn\


<global>

//ampeg_attack=0.001
//ampeg_release=0.15
//ampeg_dynamic=1

volume=0

<group> //Begin Group for entire instrument
key=12

<region>
sample=kd14bop_opn_001.wav
lovel=0
hivel=1
volume=12


<region>
sample=kd14bop_opn_002.wav
lovel=2
hivel=3
volume=12


<region>
sample=kd14bop_opn_003.wav
lovel=4
hivel=5
volume=12


<region>
sample=kd14bop_opn_004.wav
lovel=6
hivel=8
volume=11


<region>
sample=kd14bop_opn_005.wav
lovel=9
hivel=10
volume=11


<region>
sample=kd14bop_opn_006x.wav
lovel=11
hivel=12
volume=11


<region>
sample=kd14bop_opn_007.wav
lovel=13
hivel=15
volume=11


<region>
sample=kd14bop_opn_008.wav
lovel=16
hivel=17
volume=10


<region>
sample=kd14bop_opn_009.wav
lovel=18
hivel=19
volume=10


<region>
sample=kd14bop_opn_010.wav
lovel=20
hivel=22
volume=10


<region>
sample=kd14bop_opn_011.wav
lovel=23
hivel=24
volume=10


<region>
sample=kd14bop_opn_012.wav
lovel=25
hivel=26
volume=10


<region>
sample=kd14bop_opn_013.wav
lovel=27
hivel=29
volume=9


<region>
sample=kd14bop_opn_014.wav
lovel=30
hivel=31
volume=9


<region>
sample=kd14bop_opn_015.wav
lovel=32
hivel=33
volume=9


<region>
sample=kd14bop_opn_016.wav
lovel=34
hivel=35
volume=9


<region>
sample=kd14bop_opn_017.wav
lovel=36
hivel=38
volume=9


<region>
sample=kd14bop_opn_018.wav
lovel=39
hivel=40
volume=8


<region>
sample=kd14bop_opn_019.wav
lovel=41
hivel=42
volume=8


<region>
sample=kd14bop_opn_020.wav
lovel=43
hivel=45
volume=8


<region>
sample=kd14bop_opn_021.wav
lovel=46
hivel=47
volume=8


<region>
sample=kd14bop_opn_022.wav
lovel=48
hivel=49
volume=7


<region>
sample=kd14bop_opn_023.wav
lovel=50
hivel=52
volume=7


<region>
sample=kd14bop_opn_024.wav
lovel=53
hivel=54
volume=7


<region>
sample=kd14bop_opn_025.wav
lovel=55
hivel=56
volume=7


<region>
sample=kd14bop_opn_026.wav
lovel=57
hivel=59
volume=7


<region>
sample=kd14bop_opn_027.wav
lovel=60
hivel=61
volume=6


<region>
sample=kd14bop_opn_028.wav
lovel=62
hivel=63
volume=6


<region>
sample=kd14bop_opn_029.wav
lovel=64
hivel=65
volume=6


<region>
sample=kd14bop_opn_030.wav
lovel=66
hivel=68
volume=6


<region>
sample=kd14bop_opn_031.wav
lovel=69
hivel=70
volume=5


<region>
sample=kd14bop_opn_032.wav
lovel=71
hivel=72
volume=5


<region>
sample=kd14bop_opn_033.wav
lovel=73
hivel=75
volume=5


<region>
sample=kd14bop_opn_034.wav
lovel=76
hivel=77
volume=5


<region>
sample=kd14bop_opn_035.wav
lovel=78
hivel=79
volume=5


<region>
sample=kd14bop_opn_036.wav
lovel=80
hivel=82
volume=4


<region>
sample=kd14bop_opn_037.wav
lovel=83
hivel=84
volume=4


<region>
sample=kd14bop_opn_038.wav
lovel=85
hivel=86
volume=4


<region>
sample=kd14bop_opn_039.wav
lovel=87
hivel=89
volume=4


<region>
sample=kd14bop_opn_040.wav
lovel=90
hivel=91
volume=3


<region>
sample=kd14bop_opn_041.wav
lovel=92
hivel=93
volume=3


<region>
sample=kd14bop_opn_042.wav
lovel=94
hivel=95
volume=3


<region>
sample=kd14bop_opn_043.wav
lovel=96
hivel=98
volume=3


<region>
sample=kd14bop_opn_044.wav
lovel=99
hivel=100
volume=3


<region>
sample=kd14bop_opn_045.wav
lovel=101
hivel=102
volume=2


<region>
sample=kd14bop_opn_046.wav
lovel=103
hivel=105
volume=2


<region>
sample=kd14bop_opn_055.wav
lovel=106
hivel=107
volume=2


<region>
sample=kd14bop_opn_047.wav
lovel=108
hivel=109
volume=2


<region>
sample=kd14bop_opn_048x.wav
lovel=110
hivel=112
volume=2


<region>
sample=kd14bop_opn_049.wav
lovel=113
hivel=114
volume=1


<region>
sample=kd14bop_opn_050.wav
lovel=115
hivel=116
volume=1


<region>
sample=kd14bop_opn_051.wav
lovel=117
hivel=119
volume=1


<region>
sample=kd14bop_opn_052.wav
lovel=120
hivel=121
volume=1


<region>
sample=kd14bop_opn_053.wav
lovel=122
hivel=123
volume=0


<region>
sample=kd14bop_opn_054.wav
lovel=124
hivel=127
volume=0


